<svg width="183" height="22" viewBox="0 0 183 22" fill="none" xmlns="http://www.w3.org/2000/svg">
<path fill-rule="evenodd" clip-rule="evenodd" d="M16.7236 1.05554C17.6032 1.18822 18.402 1.54769 19.0764 2.07172L17.5496 2.26394L18.3276 3.43158L18.1969 3.53349C17.7156 3.14359 17.139 2.87604 16.5013 2.77985C14.4885 2.47626 12.6293 3.99473 12.3486 6.17145C12.0678 8.34816 13.4719 10.3588 15.4847 10.6624C17.4974 10.966 19.3567 9.44756 19.6374 7.27084C19.7145 6.67331 19.6646 6.0883 19.51 5.54767L19.6598 5.43088L20.4379 6.59853L21.0745 5.12769C21.2763 5.87863 21.3382 6.6867 21.2318 7.51134C20.8283 10.6404 18.1556 12.8232 15.2623 12.3868C12.369 11.9503 10.3506 9.05998 10.7541 5.93096C11.1577 2.80193 13.8303 0.619134 16.7236 1.05554ZM18.3731 2.59875L22 2.14214L20.4519 5.71855L19.8919 4.87814L15.2742 8.4672L14.317 7.0269L18.9331 3.43915L18.3731 2.59875ZM12.4168 1.58043H0V20H20.6819V10.6043C20.1106 11.4492 19.3566 12.1305 18.492 12.5893V18.158H17.7621V13.0644C17.1594 13.3305 16.5031 13.4838 15.8155 13.5V18.158H14.599V13.1848C13.9024 13.1016 13.2452 12.877 12.6524 12.5381V18.158H11.6792V11.5772C10.7679 10.8369 10.0771 9.7962 9.73264 8.59105V18.158H8.51606V5.99557L6.56953 4.38086V18.158H5.35295V8.59105L3.40642 7.27537V18.158H2.18984V3.68552H10.6774C11.1092 2.84605 11.7071 2.12958 12.4168 1.58043Z" fill="url(#paint0_linear_245_57)"/>
<path d="M182.543 0V16.0154H178.596V14.0769H174.6V11.1923H178.596V0H182.543ZM183 18.0462V21H165.912V14.4692H168.632V10.5923C166.767 10.6731 164.998 10.6962 163.433 10.7077L163 7.84615C165.479 7.8 168.511 7.76538 171.592 7.59231C171.797 6.09231 171.905 4.81154 171.953 3.78462H164.998V0.876923H175.852V1.66154C175.852 2.68846 175.852 4.65 175.443 7.31538C176.069 7.25769 176.706 7.18846 177.32 7.10769L177.561 9.71538C175.888 10.0038 174.167 10.2115 172.458 10.3615V14.7231H169.763V18.0462H183Z" fill="#0A467D"/>
<path d="M163 9.94927V12.9797H143V9.94927H163ZM152.953 13.761C157.739 13.761 160.607 15.2762 160.63 17.8805C160.607 20.5085 157.739 22 152.953 22C148.118 22 145.204 20.5085 145.204 17.8805C145.204 15.2762 148.118 13.761 152.953 13.761ZM152.953 16.6731C150.227 16.6731 149.066 16.9808 149.09 17.8805C149.066 18.7802 150.227 19.0643 152.953 19.0643C155.607 19.0643 156.815 18.7802 156.815 17.8805C156.815 16.9808 155.607 16.6731 152.953 16.6731ZM161.175 1V4.00676H155.915C156.531 5.07215 158.273 6.19673 162.313 6.51635L161.009 9.47576C156.614 9.10879 154.09 7.62909 152.953 5.71139C151.827 7.61725 149.339 9.12063 144.967 9.47576L143.711 6.51635C147.656 6.19673 149.398 5.07215 150.038 4.00676H144.825V1H161.175Z" fill="#0A467D"/>
<path d="M130.105 5.51784C130.081 8.77622 131.358 12.6292 135.236 14.3892L133.155 17.3622C130.779 16.3157 129.194 14.3297 128.26 11.9395C127.302 14.6032 125.671 16.8032 123.176 17.933L121 14.9362C124.949 13.1049 126.25 9.08541 126.25 5.51784V5.1373H121.922V2.04541H134.172V5.1373H130.105V5.51784ZM139.044 0V8.08649H142V11.2497H139.044V22H135.236V0H139.044Z" fill="#0A467D"/>
<path d="M121 12.9495V16.0135H112.848V22H109.057V16.0135H101V12.9495H121ZM118.962 8.82492V11.771H103.393V1H118.725V3.92256H107.114V4.9596H118.322V7.83502H107.114V8.82492H118.962Z" fill="#0A467D"/>
<path d="M80.086 20L75 2H80.0621L82.4976 13.2624H82.6409L85.4823 2H89.4938L92.3591 13.3122H92.5024L94.9379 2H100L94.914 20H90.5444L87.5597 9.70718H87.4164L84.4317 20H80.086Z" fill="#0A467D"/>
<path d="M70.199 7.66891C70.0995 6.48183 69.3035 5.8035 67.6866 5.8035C66.1194 5.8035 65.4229 6.38493 65.398 7.20861C65.3731 8.10498 66.2189 8.61373 67.8856 8.95289L69.3781 9.29206C73.2587 10.0915 74.9751 11.9327 75 14.6218C74.9751 18.0619 72.2637 20 67.7114 20C63.0597 20 60.0498 18.0135 60 13.7012H64.5274C64.602 15.3244 65.7711 16.1965 67.6368 16.1965C69.2537 16.1965 70.1244 15.5424 70.1493 14.6218C70.1244 13.7739 69.403 13.2894 67.3881 12.8533L65.5721 12.4657C62.4129 11.7873 60.4726 10.2611 60.4726 7.54778C60.4478 4.2288 63.4577 2 67.6866 2C72.0149 2 74.7264 4.25303 74.7512 7.66891H70.199Z" fill="#0A467D"/>
<path d="M54.2496 8C53.9424 6.74194 52.9261 6.01613 51.4136 6.01613C49.0266 6.01613 47.6322 7.85484 47.6322 10.9758C47.6322 14.121 48.9321 15.9839 51.39 15.9839C53.5288 15.9839 54.616 14.9556 54.6514 13.3226H51.4845V10.0323H59V12.4274C59 17.1935 55.8095 20 51.3427 20C46.3796 20 43 16.5645 43 11.0242C43 5.26613 46.7105 2 51.3191 2C55.3368 2 58.4328 4.49194 58.8109 8H54.2496Z" fill="#0A467D"/>
<path d="M32.4961 20H26V2H32.4488C37.7165 2 41 5.38122 41 11C41 16.6188 37.7165 20 32.4961 20ZM30.4882 15.9724H32.3307C34.9764 15.9724 36.4646 14.8039 36.4646 11C36.4646 7.19613 34.9764 6.02762 32.2126 6.02762H30.4882V15.9724Z" fill="#0A467D"/>
<defs>
<linearGradient id="paint0_linear_245_57" x1="1.09492" y1="19.9458" x2="23.3868" y2="0.900111" gradientUnits="userSpaceOnUse">
<stop/>
<stop offset="1" stop-color="#0E6CC0"/>
</linearGradient>
</defs>
</svg>
